# xmcd CD database file
#
# Track frame offsets:
#	150
#	11783
#	24946
#	39098
#	53061
#	67624
#	80466
#	90801
#	103452
#	117172
#	131859
#	144944
#	158759
#	173674
#	187826
#	201865
#	214749
#	227929
#
# Disc length: 3195 seconds
#
# Revision: 5
# Processed by: cddbd v1.5.2PL0 Copyright (c) Steve Scherf et al.
# Submitted via: CDex 1.51
#
DISCID=df0c7912
DTITLE=Count Basie - Vol.07 - The King
DYEAR=1900
DGENRE=Jazz
TTITLE0=Red Bank Boogie
TTITLE1=Jimmy's Blues
TTITLE2=Avenue C
TTITLE3=This Heart Of Mine
TTITLE4=That Old Feeling
TTITLE5=Blue Skies
TTITLE6=Jivin' Joe Jackson
TTITLE7=High Tide
TTITLE8=Queer Street
TTITLE9=Patience And Fortitude
TTITLE10=The Mad Boogie
TTITLE11=Lazy Lady Blues
TTITLE12=Rambo
TTITLE13=Stay Cool
TTITLE14=The King
TTITLE15=Brand New Wagon
TTITLE16=Me And The Blues
TTITLE17=Bill's Mill
EXTD=
EXTT0=
EXTT1=
EXTT2=
EXTT3=
EXTT4=
EXTT5=
EXTT6=
EXTT7=
EXTT8=
EXTT9=
EXTT10=
EXTT11=
EXTT12=
EXTT13=
EXTT14=
EXTT15=
EXTT16=
EXTT17=
PLAYORDER=
